<svg version="1.1" id="Layer_1" xmlns="http://www.w3.org/2000/svg" x="0" y="0" viewBox="0 0 202.3 64.6" xml:space="preserve"><style>.st0{fill:#fff}</style><g id="Layer_2"><g id="Layer_2-2"><g id="Page-1"><g id="Desktop-HD"><g id="Top"><g id="electrode-logo"><g id="Group-3"><path id="Fill-1" class="st0" d="M134.6 8.9c-.2 0-.3-.1-.4-.2l-1.1-1.9-.9 1.8c-.1.2-.4.3-.6.2-.1-.1-.2-.2-.2-.3l-.8-4.6-.9 2.7c-.1.2-.2.3-.4.3h-2.2c-.2 0-.4-.2-.4-.4s.2-.4.4-.4h1.9l1.3-4.1c.1-.2.3-.3.5-.3.1 0 .3.2.3.3l.9 5.1.7-1.3c.1-.2.4-.3.6-.2.1 0 .1.1.2.2l1 1.6 1.6-7c.1-.2.3-.4.5-.3.2 0 .3.2.3.3l1 5.7 3.4.2c.2 0 .4.2.4.4s-.2.4-.4.4l-3.7-.2c-.2 0-.4-.2-.4-.3l-.8-4-1.4 6c0 .1-.2.3-.4.3"/></g><g id="Group-6"><path id="Fill-4" class="st0" d="M134.3 31.9c-4.9 0-8.8-3.9-8.8-8.8s3.9-8.8 8.8-8.8 8.8 3.9 8.8 8.8-3.9 8.8-8.8 8.8m10.8-13.4h-.3l-.1-.3c-.6-1.3-1.5-2.4-2.5-3.4l-.4-.3 3.4-5.8h.3c1-.2 1.6-1.1 1.5-2s-1.1-1.6-2-1.5-1.6 1.1-1.5 2c0 .2.1.4.2.6l.2.3-3.3 5.4-.5-.3c-1.7-.9-3.6-1.5-5.6-1.5-1.9 0-3.9.5-5.6 1.5l-.5.3-3.5-5.5.1-.3c.1-.2.2-.5.2-.8 0-1-.8-1.8-1.8-1.8s-1.8.8-1.8 1.8c0 .9.7 1.6 1.5 1.7h.3l3.4 5.8-.4.3c-1 .9-1.9 2.1-2.5 3.3l-.2.3h-.3c-2.4.2-4.2 2.4-4 4.8.2 2 1.7 3.7 3.8 4h.3l.1.3c1.8 4.2 5.9 7 10.5 7s8.7-2.8 10.5-7l.1-.3h.3c2.4-.4 4.1-2.6 3.7-5 0-1.9-1.6-3.5-3.6-3.6"/></g><path id="Fill-7" class="st0" d="M138.9 21.1c0 .7-.6 1.3-1.3 1.3s-1.3-.6-1.3-1.3c0-.7.6-1.3 1.3-1.3s1.3.6 1.3 1.3"/><path id="Fill-9" class="st0" d="M132.2 21.1c0 .7-.6 1.3-1.3 1.3s-1.3-.6-1.3-1.3.6-1.3 1.3-1.3c.8 0 1.4.6 1.3 1.3.1 0 .1 0 0 0"/><g id="Group-13"><path id="Fill-11" class="st0" d="M17.4 21c-.3-4-2.6-7.5-7-7.5-3.8 0-6.7 3.2-7.1 7.5h14.1zm-6.5 12.7C4.9 33.7 0 29.1 0 22.3v-.1c0-6.3 4.4-11.4 10.5-11.4 6.5 0 10.2 5.3 10.2 11.1 0 .8-.7 1.5-1.5 1.5H3.3c.5 4.8 3.8 7.4 7.7 7.4 2.4 0 4.6-.9 6.3-2.5.6-.5 1.5-.5 2 .1.2.3.4.6.4.9 0 .4-.2.8-.5 1.1-2.2 2.2-5.2 3.4-8.3 3.3z"/></g><path id="Fill-14" class="st0" d="M26.8 3.7c0-.9.7-1.6 1.6-1.6s1.6.7 1.6 1.6v28.1c0 .9-.7 1.6-1.5 1.6h-.1c-.9 0-1.6-.7-1.6-1.6V3.7z"/><path id="Fill-16" class="st0" d="M53.7 21c-.3-4-2.6-7.5-7-7.5-3.8 0-6.7 3.2-7.1 7.5h14.1zm-6.5 12.7c-6 0-11-4.6-11-11.4v-.1c0-6.3 4.5-11.4 10.5-11.4 6.5 0 10.2 5.3 10.2 11.1 0 .8-.7 1.5-1.5 1.5H39.6c.5 4.8 3.8 7.4 7.7 7.4 2.4 0 4.6-.9 6.3-2.5.6-.5 1.5-.5 2 .1.2.3.4.6.4.9 0 .4-.2.8-.5 1.1-2.2 2.2-5.2 3.4-8.3 3.3z"/><path id="Fill-18" class="st0" d="M61.4 22.4c0-6.4 5.1-11.5 11.3-11.5 3 0 5.8 1.1 8 3.2.3.3.5.7.5 1.1 0 .9-.7 1.6-1.6 1.6-.4 0-.8-.1-1.1-.4-1.6-1.6-3.7-2.6-6-2.6-4.4 0-7.8 3.8-7.8 8.5v.1c-.2 4.5 3.3 8.3 7.9 8.5h.2c2.3-.1 4.5-1 6.1-2.7.2-.3.6-.4.9-.4.8 0 1.5.7 1.5 1.5 0 .4-.2.7-.4 1-2.1 2.3-5.1 3.6-8.3 3.5-6.2-.1-11.2-5.2-11.2-11.4"/><path id="Fill-20" class="st0" d="M88.1 27.4V14.2h-1.8c-.8 0-1.4-.7-1.4-1.4 0-.8.6-1.4 1.4-1.4h1.8V6.1c0-.9.7-1.6 1.6-1.6.9 0 1.6.7 1.7 1.7v5.2h5.7c.8 0 1.5.6 1.5 1.4 0 .8-.7 1.4-1.5 1.4h-5.7V27c0 2.7 1.5 3.6 3.7 3.6.7 0 1.3-.1 2-.3.8 0 1.4.6 1.4 1.4 0 .6-.4 1.1-.9 1.2-1 .4-2.1.6-3.2.6-3.6.1-6.3-1.6-6.3-6.1"/><path id="Fill-22" class="st0" d="M104.1 12.7c0-.9.7-1.6 1.6-1.6s1.6.7 1.7 1.6v4.1c1.6-3.6 4.8-5.8 7.6-5.8.9 0 1.6.7 1.6 1.5v.1c0 .8-.6 1.6-1.4 1.6-4.2.5-7.7 3.7-7.7 10v7.5c0 .9-.7 1.6-1.6 1.6s-1.6-.7-1.6-1.6v-19h-.2z"/><path id="Fill-24" class="st0" d="M156.8 22.2c0 5.2 3.6 8.6 7.7 8.6 4.5-.1 8.1-3.9 7.9-8.4v-.1c.2-4.5-3.4-8.3-7.9-8.4h-.1c-4.1-.2-7.6 3-7.6 8.3zm18.8 9.6c0 .9-.7 1.6-1.6 1.6-.9 0-1.6-.7-1.6-1.6v-3c-1.8 2.6-4.4 4.9-8.4 4.9-5.3 0-10.5-4.2-10.5-11.4v-.1c0-7.2 5.2-11.4 10.5-11.4 3.4 0 6.6 1.8 8.4 4.7V3.7c-.1-.9.6-1.6 1.5-1.7h.2c.9 0 1.6.7 1.6 1.6l-.1 28.2z"/><path id="Fill-26" class="st0" d="M199 21c-.3-4-2.6-7.5-7-7.5-3.8 0-6.7 3.2-7.1 7.5H199zm-6.5 12.7c-6 0-10.9-4.6-10.9-11.4v-.1c0-6.3 4.4-11.4 10.5-11.4 6.5 0 10.2 5.3 10.2 11.1 0 .8-.7 1.5-1.5 1.5h-15.9c.5 4.8 3.8 7.4 7.7 7.4 2.4 0 4.6-.9 6.3-2.5.6-.5 1.5-.5 2 .1.2.3.4.6.4.9 0 .4-.2.8-.5 1.1-2.2 2.2-5.2 3.4-8.3 3.3z"/></g></g></g></g><path class="st0" d="M38.2 50.9c0-.9.7-1.7 1.7-1.7.9 0 1.7.8 1.7 1.7v.7c1-1.6 2.8-2.6 4.7-2.6 3.4 0 5.3 2.3 5.3 5.7v8c0 .9-.7 1.7-1.6 1.7h-.1c-.9 0-1.7-.7-1.7-1.7v-7c0-2.3-1.2-3.6-3.2-3.6s-3.4 1.4-3.4 3.7v6.9c-.1.9-.9 1.6-1.8 1.6-.8-.1-1.5-.7-1.6-1.6V50.9zM63.1 60c0-3.3 2.5-4.9 6.1-4.9 1.4 0 2.7.2 4 .6v-.4c0-2.1-1.3-3.2-3.7-3.2-1.1 0-2.2.2-3.3.6-.2.1-.4.1-.5.1-.8 0-1.4-.6-1.4-1.4 0-.6.4-1.1.9-1.3 1.5-.6 3.2-.9 4.8-.9 1.8-.1 3.6.5 5 1.7 1.1 1.2 1.7 2.9 1.6 4.6v7.3c0 .9-.7 1.6-1.6 1.6-.8.1-1.6-.5-1.7-1.4v-.7c-1.2 1.4-3 2.2-4.8 2.2-2.9.1-5.4-1.5-5.4-4.5zm10.2-1.1v-1a9.6 9.6 0 00-3.3-.6c-2.2 0-3.5.9-3.5 2.5v.1c0 1.4 1.3 2.3 2.9 2.3 2.2-.1 3.9-1.4 3.9-3.3zm16.4 1.3v-7.8h-.6c-.8-.1-1.4-.8-1.3-1.6.1-.7.6-1.3 1.3-1.3h.6V47c.1-.9.9-1.6 1.8-1.6.8.1 1.5.7 1.6 1.6v2.5h2.7c.8-.1 1.5.5 1.6 1.3s-.5 1.5-1.3 1.6h-2.9v7.3c-.1.9.5 1.7 1.4 1.9h.5c.3 0 .6 0 .8-.1.8 0 1.4.6 1.4 1.4 0 .6-.4 1.1-.9 1.3-.8.3-1.5.4-2.3.4-2.6-.1-4.4-1.2-4.4-4.4zM109 45.4c.3-1.1 1.3-1.7 2.4-1.5.7.2 1.3.7 1.5 1.5v.2c-.3 1.1-1.3 1.7-2.4 1.5-.7-.2-1.3-.7-1.5-1.5v-.2zm.2 5.5c0-.9.7-1.7 1.7-1.7h.1c.9 0 1.7.8 1.7 1.7v11.8c-.1.9-.9 1.6-1.8 1.6-.8-.1-1.5-.7-1.6-1.6l-.1-11.8zm22.6 13.7h-.2c-.9 0-1.7-.6-1.9-1.5l-5-11.4c-.1-.3-.2-.6-.2-.8 0-1 .9-1.7 1.8-1.6.7 0 1.4.5 1.6 1.2l3.8 9.9 3.9-9.9c.2-.7.9-1.2 1.6-1.2.9 0 1.6.7 1.7 1.6 0 .3-.1.6-.2.8l-5 11.4c-.3.8-1 1.4-1.9 1.5zm25 0c-4.1.1-7.5-3.1-7.7-7.2v-.6c0-4.3 3-7.8 7.3-7.8 4.7 0 7.1 3.9 7.1 7.3 0 .9-.7 1.6-1.6 1.6h-9.3c.2 2.2 2.1 3.9 4.3 3.8 1.3 0 2.5-.5 3.5-1.3.2-.2.6-.3.9-.3.7 0 1.3.6 1.4 1.3v.1c0 .4-.2.7-.4 1-1.6 1.4-3.5 2.2-5.5 2.1zm3.4-8.8c-.2-2.2-1.5-3.9-3.8-3.9-2.1 0-3.6 1.6-3.9 3.9h7.7z"/></g></g></svg>