<svg xmlns="http://www.w3.org/2000/svg" viewBox="0 0 1662.7 290"><linearGradient id="a" gradientUnits="userSpaceOnUse" x1="831.469" y1="6502.456" x2="831.469" y2="7567.58" gradientTransform="translate(0 -6440)"><stop offset="0" stop-color="#fff"/><stop offset="1" stop-color="#006c96"/></linearGradient><path d="M92.7 132.4s22.3-13.3 37.7 2c0 0 21.8-28.8 70.5-16.9 0 0 19.8-47.6 72.4-36.7 0 0 30.9-69.3 136.5-53.8 34.6 5.1 72.2 26.1 108.6 76.6 0 0 92.3-54.6 122.1 29.8 0 0 107.2-45.6 195.5 37.7 0 0 23.8-33.7 63.5-14.9 0 0 15.9-26.8 54.6-32.7 0 0 105.2-89.3 192.5 26.8 0 0 17.9-26.8 74.4-5 0 0 46.6-47.6 79.4-38.7 0 0 82.4-110.1 220.3-15.9 0 0 34.7-28.8 72.4 6 0 0 81.4-8.9 69.5 54.6v132.5H-.9V136.3s51-51.5 93.6-3.9z" opacity=".9" fill="url(#a)"/><linearGradient id="b" gradientUnits="userSpaceOnUse" x1="-775.77" y1="-5210.31" x2="-775.77" y2="-5538.695" gradientTransform="rotate(180 328.19 -2522)"><stop offset="0" stop-color="#fff"/><stop offset="1" stop-color="#00607a"/></linearGradient><path d="M1662.6 180.5s-13.8-8.7-24.8.8c0 0-15.7-17.6-50.7-10.4 0 0-14.2-29.2-52-22.6 0 0-92.7-84.8-176.3 14 0 0-66.4-33.5-87.8 18.3-.1-3.6-61.4-18.7-69.5 11.6v93.7h461.3l-.2-105.4z" opacity=".9" fill="url(#b)"/><linearGradient id="c" gradientUnits="userSpaceOnUse" x1="359.908" y1="-5203.47" x2="359.908" y2="-5683.808" gradientTransform="matrix(1 0 0 -1 0 -5044)"><stop offset="0" stop-color="#fff"/><stop offset="1" stop-color="#00607a"/></linearGradient><path d="M-.9 194.6c2.1 1.9 5.3 3.7 8.3 5.8 0 0 21.5-20.7 55.7-9.1 0 0 13.7-16.4 47-20.2 0 0 90.5-54.9 165.6 16.4 0 0 15.3-16.4 64.1-3.1 0 0 40.1-29.2 68.3-23.8 0 0 70.9-67.7 189.5-9.7 0 0 29.9-17.6 62.3 3.6 0 0 70-5.5 59.8 33.5v99.6L-.9 289.8v-95.2z" opacity=".9" fill="url(#c)"/><linearGradient id="d" gradientUnits="userSpaceOnUse" x1="831.506" y1="6678.737" x2="831.506" y2="6366.977" gradientTransform="translate(0 -6440)"><stop offset="0" stop-color="#fff"/><stop offset="1" stop-color="#006c96"/></linearGradient><path d="M1662.8 209.8c-2.7 1-12.3 2.4-18.5 4.1-23-20.8-61.2-34.5-104.4-34.5-39.9 0-75.5 11.7-98.8 29.9-16.8-5.2-35.6-8-55.5-8-25.2 0-48.8 4.7-68.7 12.8-38.8-14.8-86.6-23.4-138-23.4-67.4 0-128.1 14.8-171.2 38.6-45.3-29.2-104.5-46.8-169.4-46.8-26.5 0-51.9 3-75.9 8.4-22.8-9.7-48.1-15-74.4-15-48 0-91.8 17.6-125.4 46.8-32-23.8-77-38.6-126.8-38.6-38.2 0-73.4 8.7-102.2 23.4-14.7-8-32.1-12.8-50.8-12.8-14.8 0-28.7 2.9-41.1 8-17.3-18.2-43.7-29.9-73.2-29.9-32 0-60.2 13.7-77.3 34.5-11.4-4.1-23.8-6.4-36.8-6.4-20.7 0-38.6 5.7-54.2 15.4v73.5l1662.6.2v-80.2z" fill="url(#d)"/></svg>