<svg version="1.1" id="Layer_1" xmlns="http://www.w3.org/2000/svg" x="0" y="0" viewBox="0 0 34 38" xml:space="preserve"><style>.st1{fill:none;stroke:#fff;stroke-width:.5;stroke-linejoin:round;stroke-miterlimit:10}</style><g id="Page-1_6_"><g id="Mobile-Modules_6_" transform="translate(-265 -1330)"><g id="Core_6_" transform="translate(20 404)"><g id="mods_6_" transform="translate(0 161)"><g id="icn-csrf_6_" transform="translate(246 765)"><path id="Polygon_6_" d="M13.9 1.1c1.2-.7 3-.7 4.2 0l12.3 7.1c1.2.7 2.1 2.3 2.1 3.6v14.3c0 1.3-.9 2.9-2.1 3.6l-12.3 7.1c-1.2.7-3 .7-4.2 0L1.6 29.7C.4 29-.5 27.4-.5 26.1V11.8c0-1.3.9-2.9 2.1-3.6l12.3-7.1z" fill="#006a27" stroke="#ccc" stroke-width=".5"/></g></g></g></g></g><path class="st1" d="M25.8 11.2v14.5c0 .4-.4.8-.8.8H12.5c-.4 0-.8-.4-.8-.8V8.1c0-.4.4-.8.8-.8h9.7l3.6 3.9z"/><path class="st1" d="M22.2 7.2v4h3.6"/><path d="M23.2 13.8v14.5c0 .4-.4.8-.8.8H9.9c-.4 0-.8-.4-.8-.8V10.7c0-.4.4-.8.8-.8h9.7l3.6 3.9z" fill="#006a27" stroke="#fff" stroke-width=".5"/><path class="st1" d="M19.6 9.8v4h3.6m-11.4 2h8.9m-8.9-2h5.4m-5.4 3.9h8.9m-8.9 1.9h8.9m-8.9 1.9h8.9m-8.9 1.9h8.9m-8.9 1.9h8.9"/></svg>