<svg version="1.1" id="Layer_1" xmlns="http://www.w3.org/2000/svg" x="0" y="0" viewBox="0 0 34 38" xml:space="preserve"><style>.st1{fill:none;stroke:#fff;stroke-width:.5;stroke-miterlimit:10}</style><g id="Page-1_6_"><g id="Mobile-Modules_6_" transform="translate(-265 -1330)"><g id="Core_6_" transform="translate(20 404)"><g id="mods_6_" transform="translate(0 161)"><g id="icn-csrf_6_" transform="translate(246 765)"><path id="Polygon_6_" d="M13.9 1.1c1.2-.7 3-.7 4.2 0l12.3 7.1c1.2.7 2.1 2.3 2.1 3.6v14.3c0 1.3-.9 2.9-2.1 3.6l-12.3 7.1c-1.2.7-3 .7-4.2 0L1.6 29.7C.4 29-.5 27.4-.5 26.1V11.8c0-1.3.9-2.9 2.1-3.6l12.3-7.1z" fill="#6b4f0a" stroke="#ccc" stroke-width=".5"/></g></g></g></g></g><path class="st1" d="M20.8 29.7h-6.6c-1.7 0-3-1.3-3-3V10.8c0-1.7 1.3-3 3-3h6.6c1.7 0 3 1.3 3 3v15.9c0 1.6-1.4 3-3 3z"/><path class="st1" d="M12.8 10.6h9.3v15.2h-9.3z"/><circle class="st1" cx="17.4" cy="27.6" r="1"/></svg>