<svg version="1.1" id="Layer_1" xmlns="http://www.w3.org/2000/svg" x="0" y="0" viewBox="0 0 34 38" xml:space="preserve"><style>.st1{stroke:#fff;stroke-width:.5;fill:none;stroke-linecap:round;stroke-linejoin:round}</style><g id="Page-1_6_"><g id="Mobile-Modules_6_" transform="translate(-265 -1330)"><g id="Core_6_" transform="translate(20 404)"><g id="mods_6_" transform="translate(0 161)"><g id="icn-csrf_6_" transform="translate(246 765)"><path id="Polygon_6_" d="M13.9 1.1c1.2-.7 3-.7 4.2 0l12.3 7.1c1.2.7 2.1 2.3 2.1 3.6v14.3c0 1.3-.9 2.9-2.1 3.6l-12.3 7.1c-1.2.7-3 .7-4.2 0L1.6 29.7C.4 29-.5 27.4-.5 26.1V11.8c0-1.3.9-2.9 2.1-3.6l12.3-7.1z" fill="#1c2575" stroke="#ccc" stroke-width=".5"/></g></g></g></g></g><path class="st1" d="M17.3 26.6l-7.9-3V12.4l7.9 2.4z"/><path class="st1" d="M25.2 23.6l-7.9 3V14.8l7.9-2.4zm0-11.2l-7.3-1.8-8.5 1.8"/><path d="M9.4 12.5l-3 3.3 9.3 3.6 1.5-4.4m8.1-2.5l3 3.3-9.3 3.6-1.5-4.4" fill="#1c2575" stroke="#fff" stroke-width=".5"/></svg>