<svg version="1.1" id="Layer_1" xmlns="http://www.w3.org/2000/svg" x="0" y="0" viewBox="0 0 34 38" xml:space="preserve"><style>.st1{fill:none;stroke:#fff;stroke-width:.5;stroke-miterlimit:10}</style><g id="Page-1_6_"><g id="Mobile-Modules_6_" transform="translate(-265 -1330)"><g id="Core_6_" transform="translate(20 404)"><g id="mods_6_" transform="translate(0 161)"><g id="icn-csrf_6_" transform="translate(246 765)"><path id="Polygon_6_" d="M13.9 1.1c1.2-.7 3-.7 4.2 0l12.3 7.1c1.2.7 2.1 2.3 2.1 3.6v14.3c0 1.3-.9 2.9-2.1 3.6l-12.3 7.1c-1.2.7-3 .7-4.2 0L1.6 29.7C.4 29-.5 27.4-.5 26.1V11.8c0-1.3.9-2.9 2.1-3.6l12.3-7.1z" fill="#48287c" stroke="#ccc" stroke-width=".451"/></g></g></g></g></g><ellipse class="st1" cx="16.8" cy="13.3" rx="8.1" ry="2.1"/><path class="st1" d="M24.4 13.9c1.3 1.8 2.1 4 2.1 6.5 0 5.7-1.5 9.1-9.7 9.1s-9.7-3.3-9.7-9.1c0-2.4.8-4.6 2.1-6.4"/><ellipse cx="16.8" cy="12.8" rx="5.3" ry=".9" fill="#fff"/><path class="st1" d="M11.7 28.9c-.4.9-1.1 1.5-1.6 1.2-.5-.2-.6-1.2-.2-2.1m12.1.9c.4.9 1.1 1.5 1.6 1.2.5-.2.6-1.2.2-2.1"/><circle cx="17.9" cy="10.8" r="1.3" fill="#fff" stroke="#fff" stroke-width=".429" stroke-miterlimit="10"/><circle class="st1" cx="21.2" cy="8.3" r=".9"/><circle class="st1" cx="17.8" cy="6.7" r=".7"/></svg>