<svg xmlns="http://www.w3.org/2000/svg" viewBox="0 0 224.5 44.5"><path d="M78.8 27.4h4.6V4.6h-4.6v22.8zM58 4.6l-2.1 9.8c-.5 2.9-1.1 5.1-1.4 7.7h-.1c-.3-2.5-.8-4.7-1.3-7.5L51 4.6h-5.1l-2.3 9.8c-.7 3-1.2 5.4-1.6 7.9h-.1c-.4-2.4-.9-5.4-1.5-8.2 0 0-1.3-7-1.9-9.4h-5.1s4.1 16.6 4.7 19.2c.8 3.2 2.1 4.3 6 3.5l2.5-10.2c.7-2.5 1.1-4.4 1.4-6.9h.1c.3 2.6.7 4.4 1.2 6.9 0 0 1 4.6 1.5 7.2.5 2.4 2 4 5.8 3.2l6-22.8H58v-.2zm18.3 12.5c0-3.9-1.7-7.3-7.3-7.3-2.9 0-5.2.8-6.4 1.5l.9 3.1c1.1-.8 3-1.3 4.6-1.3 2.9 0 3.3 1.6 3.3 2.6v.3c-6.2 0-10.1 2.1-10.1 6.5 0 2.6 2 5.2 5.5 5.2 2.1 0 4-.9 5-2.2h.1s.7 3 4.6 1.9c-.2-1.2-.2-2.5-.2-4.1v-6.2zm-4.9 4.1c0 .3 0 .7-.1.9-.3 1.2-1.5 2.2-3.1 2.2-1.3 0-2.3-.8-2.3-2.3 0-2.3 2.5-3 5.5-3v2.2zm34.5-11.3c-1.3 0-2.4.3-3.4.9-.8.6-1.5 1.2-2.2 2.1-.8-1.9-2.4-3.1-4.7-3.1-2.9 0-4.2 1.4-5 2.8h-.1v-2.3h-4.4v17h4.6v-10c0-.4 0-1 .2-1.4.3-1 1.3-2.2 2.9-2.2 1.9 0 2.8 1.5 2.8 3.8v9.8h4.6V17.1c0-.4.1-1 .2-1.4.3-1.1 1.4-2.1 2.8-2.1 1.9 0 2.9 1.5 2.9 4.3v9.4h4.6V17.1c-.1-5.1-2.8-7.2-5.8-7.2zm28.7 3.5h-.1v-3.2h-4.2v17h4.7v-8.8c0-.4 0-.9.1-1.2.3-1.9 1.8-3 3.7-3 .5 0 1 .1 1.3.1V10c-.3-.1-.7-.1-1.1-.1-1.5 0-3.5 1.1-4.4 3.5zm16.2.9V9.9h-4.1V4.6h-4.5v16.8c0 2.3.4 4 1.3 5 .8.9 2.2 1.4 3.7 1.4 1.3 0 2.8-.2 3.3-.5l-.1-3.6c-.4.1-1 .2-1.8.2-1.5 0-2.1-1-2.1-3.1v-6.4h4.2v-.1zM128 17.1c0-3.9-1.6-7.3-7.3-7.3-2.9 0-5.2.8-6.4 1.5l.9 3.1c1.1-.8 3-1.3 4.6-1.3 2.9 0 3.3 1.6 3.3 2.6v.3c-6.2 0-10.1 2.1-10.1 6.5 0 2.6 2 5.2 5.5 5.2 2.1 0 4-.9 4.9-2.2h.1s.7 3 4.6 1.9c-.2-1.2-.2-2.5-.2-4.1v-6.2zm-4.8 4.1c0 .3 0 .7-.1.9-.3 1.2-1.5 2.2-3.1 2.2-1.3 0-2.3-.8-2.3-2.3 0-2.3 2.5-3 5.5-3v2.2zm41.9-16.6h-4.4v22.8h13.6v-3.7h-9.2zm25 12.5c0-3.9-1.7-7.3-7.3-7.3-2.9 0-5.2.8-6.4 1.5l.9 3.1c1.1-.8 3-1.3 4.6-1.3 2.9 0 3.3 1.6 3.3 2.6v.3c-6.2 0-10.1 2.1-10.1 6.5 0 2.6 2 5.2 5.5 5.2 2.1 0 4-.9 4.9-2.2h.1s.7 3 4.6 1.9c-.2-1.2-.2-2.5-.2-4.1v-6.2zm-4.9 4.1c0 .3 0 .7-.1.9-.3 1.2-1.5 2.2-3.1 2.2-1.3 0-2.3-.8-2.3-2.3 0-2.3 2.5-3 5.5-3v2.2zm17.7-11.1c-2.6 0-4.5 1.1-5.5 2.8h-.1V4.7h-4.4v19.1c0 1.3-.1 2.4-.2 3.4 3.5 1 4.5-1.2 4.6-1.8 1.2 1.5 3 2.2 4.9 2.2 4 0 7.9-3 7.9-9.1.1-5-3-8.4-7.2-8.4zm-1.6 14.2c-1.9 0-3.4-1.3-3.8-3-.1-.3-.1-.7-.1-1v-2.8c0-.4.1-.8.1-1.1.6-1.9 2.1-3.1 3.8-3.1 3 0 4.4 2.4 4.4 5.4 0 3.5-1.7 5.6-4.4 5.6zm17.4-7.1c-2.2-.8-3.1-1.3-3.1-2.3s.9-1.8 2.4-1.8 3 .5 3.6 1l.9-3c-1-.6-2.6-1-4.6-1-4.1 0-6.6 2.3-6.6 5.3 0 2 1.4 3.7 4.7 4.9 2.1.8 2.9 1.3 2.9 2.4s-.9 1.9-2.8 1.9c-1.5 0-3.4-.7-4.4-1.2l-.9 3.1c1.3.7 3.2 1.2 5.3 1.2 4.6 0 7-2.2 7-5.3.2-2.5-1.2-4.1-4.4-5.2zM25.5 19.1H12.4l4.7-17.8H7.5L2 22c-.8 3.1 1.1 5.6 4.4 5.7h5.9L8.6 42.1c0 .2.2.3.3.1l17-22.6c.1-.2 0-.5-.4-.5zM5.9 23.5l5.5-20.4h.8L7 22.7h11.6c.2 0 .4.2.4.4s-.2.4-.4.4H5.9z" fill="#fff"/></svg>